<svg width="48" height="48" viewBox="0 0 48 48" fill="none" xmlns="http://www.w3.org/2000/svg">
<g clip-path="url(#clip0_879_4722)">
<path d="M40.8 0H7.2C3.22355 0 0 3.22355 0 7.2V40.8C0 44.7765 3.22355 48 7.2 48H40.8C44.7765 48 48 44.7765 48 40.8V7.2C48 3.22355 44.7765 0 40.8 0Z" fill="#0061FF"/>
<path d="M14.8125 34.875L24 40.7812L33.1875 34.875L24 29.0625L14.8125 34.875ZM14.8125 9.46875L5.53125 15.375L33.1875 33L42.4688 27.0938L24 15.375L33.1875 9.46875L42.4688 15.375L14.8125 33L5.53125 27.0938L24 15.375" fill="white"/>
</g>
<defs>
<clipPath id="clip0_879_4722">
<rect width="48" height="48" fill="white"/>
</clipPath>
</defs>
</svg>
