<svg width="48" height="48" viewBox="0 0 48 48" fill="none" xmlns="http://www.w3.org/2000/svg">
<path d="M8.62167 1.96973H39.3778C43.0527 1.96973 46.0317 4.94878 46.0317 8.62363V39.3764C46.0317 43.0512 43.0527 46.0303 39.3778 46.0303H8.62167C4.94682 46.0303 1.96777 43.0512 1.96777 39.3764V8.62363C1.96777 4.94878 4.94682 1.96973 8.62167 1.96973Z" fill="#79D624"/>
<path d="M29.5474 33.3572V36.3034L28.4761 36.3703C26.8962 36.3916 26.0713 38.8734 28.3422 39.1826C29.1017 39.3152 29.8365 39.2723 30.8196 39.1826C32.7185 38.9055 33.098 38.7312 33.0962 37.2408C33.0739 36.5776 33.0516 35.7831 33.0293 34.7633C32.9212 33.5573 32.1799 31.4793 30.8866 31.5493C29.7058 31.5461 28.5063 31.4348 27.6056 31.1476C26.0462 30.6527 25.4674 30.8867 24.2577 28.5362C23.92 29.4856 23.5424 29.9926 23.4542 30.8128C23.231 32.2234 22.4255 32.7023 21.3115 32.6876C19.9036 32.5485 18.4959 32.2205 16.9592 31.8841C15.5726 31.5788 14.3518 31.5536 12.9416 31.0136C10.7072 30.0737 10.5283 27.4894 9.99543 25.1882C9.53377 23.024 9.2066 20.7045 8.92409 18.4254C8.62712 16.3759 9.29291 15.0324 11.6694 14.9435L15.0843 15.0105C16.026 14.9187 16.9326 14.786 16.8252 13.4704L16.7583 9.58681C16.854 9.32554 17.2203 6.96382 19.8384 6.90845L23.1194 7.04237C24.2582 7.23407 26.1745 7.5881 26.8691 9.72072C29.1147 9.774 31.4553 9.73227 33.3641 10.1225C35.3853 10.9135 38.6148 10.4963 38.1851 13.7382C38.627 13.8955 38.691 18.7759 38.7877 23.2464C38.8086 25.959 38.721 28.7258 38.386 31.6163C38.3677 34.4837 37.4665 36.998 36.5781 39.5174C36.0334 41.0941 35.2931 42.4969 33.1632 42.6645C30.9988 42.9311 28.9915 42.8836 27.003 42.7984C25.1242 42.7441 24.128 41.513 23.8559 39.3165V37.0399C23.8578 35.5261 24.6843 34.2025 27.003 33.2233L29.5474 33.3572Z" fill="black" stroke="black"/>
<path d="M29.748 24.2172L33.6651 24.2506C33.7865 22.2099 32.9076 21.8124 31.7903 21.8066C29.7812 22.0064 29.8606 23.1554 29.748 24.2172Z" fill="#79D624"/>
<path d="M9.49316 14.3073L16.1221 7.74536C15.5692 9.10686 15.7971 11.6067 15.6869 13.4703C15.716 13.7472 15.5118 13.9073 15.1847 14.006C13.2902 14.0901 11.4674 13.7447 9.49316 14.3073Z" fill="black"/>
<path d="M9.49316 14.3073L16.1221 7.74536C15.5692 9.10686 15.7971 11.6067 15.6869 13.4703C15.716 13.7472 15.5118 13.9073 15.1847 14.006C13.2902 14.0901 11.4674 13.7447 9.49316 14.3073Z" fill="url(#paint0_linear_879_4778)"/>
<path opacity="0.553648" fill-rule="evenodd" clip-rule="evenodd" d="M34.3902 3.85327H13.6097C8.109 3.85327 3.68066 8.3176 3.68066 13.863V34.1369C3.85871 38.4655 4.54359 35.729 5.84723 30.9353C7.36234 25.3641 12.2966 20.4948 18.3056 16.8455C22.8921 14.0602 28.0258 12.2815 37.3705 12.1123C42.6702 12.0164 42.2023 5.23429 34.3902 3.85327Z" fill="url(#paint1_linear_879_4778)"/>
<defs>
<linearGradient id="paint0_linear_879_4778" x1="16.1221" y1="14.3073" x2="12.8076" y2="11.0263" gradientUnits="userSpaceOnUse">
<stop stop-color="#B8B8B8"/>
<stop offset="1" stop-color="#B8B8B8" stop-opacity="0"/>
</linearGradient>
<linearGradient id="paint1_linear_879_4778" x1="7.48724" y1="-2.55589" x2="13.2203" y2="14.1553" gradientUnits="userSpaceOnUse">
<stop stop-color="white"/>
<stop offset="1" stop-color="white" stop-opacity="0"/>
</linearGradient>
</defs>
</svg>
