<svg width="48" height="48" viewBox="0 0 48 48" fill="none" xmlns="http://www.w3.org/2000/svg">
<g clip-path="url(#clip0_879_4708)">
<path d="M24 0C37.2562 0 48 10.7438 48 24C48 37.2562 37.2562 48 24 48C10.7438 48 0 37.2562 0 24C0 10.7438 10.7438 0 24 0Z" fill="#03D47C"/>
<path d="M30.6188 18.4687V14.5593H17.3813V33.4312H30.6188V29.5312H22.247V25.9125H28.9876V21.9093H22.247V18.4687H30.6188Z" fill="#002E22"/>
<path d="M24.0283 8.33447C27.3752 8.33447 30.4502 9.3751 33.0096 11.147C33.6564 11.597 34.5471 11.5595 35.1002 11.0063C35.7283 10.3782 35.6908 9.34697 34.9689 8.82197C31.8846 6.6001 28.1064 5.2876 24.0283 5.2876C13.6877 5.2876 5.27832 13.697 5.27832 24.0376C5.27832 28.1157 6.59082 31.9032 8.8127 34.9782C9.32832 35.7001 10.3689 35.7376 10.9971 35.1095C11.5596 34.547 11.5877 33.6657 11.1377 33.0188C9.36582 30.4688 8.3252 27.3845 8.3252 24.0376C8.33457 15.3563 15.3564 8.33447 24.0283 8.33447Z" fill="#002E22"/>
<path d="M39.4969 13.4437C38.9813 12.6937 37.9219 12.6468 37.2844 13.2937C36.7313 13.8468 36.6844 14.7187 37.1156 15.375C38.7563 17.85 39.7219 20.8406 39.7219 24.0375C39.7219 27.2437 38.7188 30.3281 37.0125 32.8593C36.5719 33.5062 36.6094 34.3875 37.1719 34.95C37.8094 35.5875 38.85 35.5406 39.3656 34.8093C41.5125 31.7625 42.7781 28.05 42.7781 24.0468C42.7781 20.0437 41.5688 16.4437 39.4969 13.4437Z" fill="#002E22"/>
<path d="M24.028 39.7312C20.8312 39.7312 17.8405 38.7562 15.3655 37.125C14.7093 36.6937 13.8374 36.7406 13.2843 37.2937C12.6468 37.9312 12.6937 38.9906 13.4343 39.5062C16.453 41.5781 20.0999 42.7874 24.028 42.7874C27.9749 42.7874 31.7343 41.5218 34.7905 39.375C35.5218 38.8593 35.5687 37.8093 34.9312 37.1812C34.378 36.6281 33.4968 36.5906 32.8405 37.0312C30.3374 38.7281 27.2999 39.7312 24.028 39.7312Z" fill="#002E22"/>
</g>
<defs>
<clipPath id="clip0_879_4708">
<rect width="48" height="48" fill="white"/>
</clipPath>
</defs>
</svg>
