<svg width="60" height="45" viewBox="0 0 60 45" fill="none" xmlns="http://www.w3.org/2000/svg">
<g clip-path="url(#clip0_879_4701)">
<path d="M4.09091 44.9999H13.6364V21.8181L0 11.5908V40.909C0 43.1726 1.83409 44.9999 4.09091 44.9999Z" fill="#4285F4"/>
<path d="M46.3638 44.9999H55.9092C58.1729 44.9999 60.0001 43.1658 60.0001 40.909V11.5908L46.3638 21.8181" fill="#34A853"/>
<path d="M46.3638 4.0908V21.8181L60.0001 11.5908V6.13625C60.0001 1.07716 54.2251 -1.80693 50.182 1.22716" fill="#FBBC04"/>
<path d="M13.6362 21.8181V4.09082L29.9999 16.3635L46.3635 4.09082V21.8181L29.9999 34.0908" fill="#EA4335"/>
<path d="M0 6.13625V11.5908L13.6364 21.8181V4.0908L9.81818 1.22716C5.76818 -1.80693 0 1.07716 0 6.13625Z" fill="#C5221F"/>
</g>
<defs>
<clipPath id="clip0_879_4701">
<rect width="60" height="45" fill="white"/>
</clipPath>
</defs>
</svg>
