<svg width="48" height="48" viewBox="0 0 48 48" fill="none" xmlns="http://www.w3.org/2000/svg">
<g clip-path="url(#clip0_879_4730)">
<path d="M36.6315 11.3683L25.2631 10.1052L11.3683 11.3683L10.105 24L11.3681 36.6317L23.9998 38.2107L36.6315 36.6317L37.8946 23.6844L36.6315 11.3683Z" fill="white"/>
<path d="M16.5505 30.9663C15.6063 30.3284 14.9526 29.397 14.5957 28.1653L16.7874 27.2622C16.9863 28.0201 17.3336 28.6074 17.8295 29.0242C18.3222 29.4411 18.9222 29.6463 19.6232 29.6463C20.3401 29.6463 20.9559 29.4284 21.4705 28.9926C21.9851 28.5567 22.2443 28.0009 22.2443 27.3284C22.2443 26.6401 21.9726 26.0778 21.4295 25.6422C20.8863 25.2066 20.2043 24.9884 19.3895 24.9884H18.1232V22.819H19.2599C19.9609 22.819 20.5515 22.6297 21.0315 22.2507C21.5115 21.8718 21.7515 21.3538 21.7515 20.6938C21.7515 20.1066 21.5367 19.639 21.1074 19.2886C20.678 18.9382 20.1347 18.7614 19.4747 18.7614C18.8305 18.7614 18.3188 18.932 17.9399 19.2762C17.5609 19.6203 17.2861 20.0434 17.1126 20.5424L14.9432 19.6393C15.2305 18.8245 15.758 18.1045 16.5315 17.4824C17.3053 16.8603 18.2936 16.5476 19.4936 16.5476C20.3809 16.5476 21.1799 16.7182 21.8874 17.0624C22.5947 17.4066 23.1505 17.8834 23.5515 18.4897C23.9526 19.099 24.1515 19.7814 24.1515 20.539C24.1515 21.3128 23.9653 21.9663 23.5926 22.5032C23.2199 23.0401 22.7619 23.4505 22.2188 23.738V23.8674C22.9357 24.1674 23.5199 24.6253 23.9809 25.2411C24.4388 25.857 24.6692 26.5928 24.6692 27.4518C24.6692 28.3107 24.4513 29.078 24.0155 29.7507C23.5796 30.4234 22.9765 30.9538 22.2123 31.339C21.4451 31.7242 20.583 31.9201 19.6261 31.9201C18.5178 31.9232 17.4947 31.6042 16.5505 30.9663Z" fill="#1A73E8"/>
<path d="M30.0002 20.0906L27.6064 21.8306L26.4033 20.0054L30.7202 16.8916H32.375V31.5789H30.0002V20.0906Z" fill="#1A73E8"/>
<path d="M36.6317 48L48 36.6317L42.3159 34.1055L36.6317 36.6317L34.1055 42.3159L36.6317 48Z" fill="#EA4335"/>
<path d="M8.84229 42.3158L11.3685 47.9999H36.6316V36.6316H11.3685L8.84229 42.3158Z" fill="#34A853"/>
<path d="M3.78936 0C1.69584 0 0 1.69584 0 3.78936V36.6314L5.68416 39.1577L11.3683 36.6314V11.3683H36.6314L39.1577 5.68416L36.6317 0H3.78936Z" fill="#4285F4"/>
<path d="M0 36.6316V44.2106C0 46.3043 1.69584 47.9999 3.78936 47.9999H11.3683V36.6316H0Z" fill="#188038"/>
<path d="M36.6318 11.3683V36.6314H48.0002V11.3683L42.316 8.84204L36.6318 11.3683Z" fill="#FBBC04"/>
<path d="M48.0002 11.3683V3.78936C48.0002 1.6956 46.3043 0 44.2108 0H36.6318V11.3683H48.0002Z" fill="#1967D2"/>
</g>
<defs>
<clipPath id="clip0_879_4730">
<rect width="48" height="48" fill="white"/>
</clipPath>
</defs>
</svg>
