<svg width="39" height="48" viewBox="0 0 39 48" fill="none" xmlns="http://www.w3.org/2000/svg">
<g clip-path="url(#clip0_879_4732)">
<path d="M15.2511 9.60083C14.9216 9.60081 14.603 9.71838 14.3525 9.93239C14.102 10.1464 13.9361 10.4428 13.8847 10.7682L11.6137 25.1682L9.52714 38.4L9.52588 38.4111L9.5284 38.4L11.615 25.1682C11.721 24.4957 12.3 24.0008 12.9806 24.0008H19.6336C26.3291 24.0008 32.012 19.1159 33.0499 12.4964C33.129 11.9935 33.1713 11.4954 33.1809 11.0038V11.003H33.1801C31.4786 10.1103 29.4805 9.60083 27.2911 9.60083H15.2511Z" fill="#001C64"/>
<path d="M33.1807 11.0032C33.1714 11.4948 33.1285 11.9934 33.0497 12.4963C32.0118 19.1158 26.3289 24.0007 19.6334 24.0007H12.9804C12.2998 24.0007 11.7208 24.4956 11.6147 25.1681L9.5282 38.3999L8.21873 46.7015C8.1935 46.8619 8.20332 47.0258 8.2475 47.182C8.29168 47.3382 8.36917 47.483 8.47465 47.6063C8.58012 47.7297 8.71108 47.8288 8.85851 47.8967C9.00593 47.9647 9.16631 47.9999 9.32864 47.9999H16.5501C16.8795 47.9999 17.1982 47.8824 17.4487 47.6684C17.6992 47.4543 17.865 47.158 17.9165 46.8325L19.8188 34.7681C19.9254 34.0956 20.5047 33.5999 21.1853 33.5999H25.4375C32.133 33.5999 37.8152 28.7153 38.853 22.0963C39.5898 17.3974 37.2251 13.1227 33.1807 11.0032Z" fill="#0070E0"/>
<path d="M7.04671 0C6.71714 1.02671e-05 6.39839 0.11769 6.14788 0.331846C5.89737 0.546003 5.73155 0.842567 5.68028 1.16813L0.0137661 37.1008C-0.0115771 37.2612 -0.00184547 37.4252 0.0422786 37.5815C0.0864026 37.7378 0.163874 37.8827 0.269364 38.0061C0.374853 38.1296 0.505859 38.2288 0.653344 38.2967C0.80083 38.3647 0.961293 38.3999 1.12369 38.4H9.52709L11.6136 25.1681L13.8846 10.7681C13.9361 10.4427 14.1019 10.1463 14.3524 9.9323C14.6029 9.7183 14.9216 9.60073 15.251 9.60075H27.2906C29.4804 9.60075 31.4785 10.111 33.1803 11.0024C33.2962 4.97612 28.3237 0 21.486 0H7.04671Z" fill="#003087"/>
</g>
<defs>
<clipPath id="clip0_879_4732">
<rect width="38.9865" height="48" fill="white"/>
</clipPath>
</defs>
</svg>
