<svg width="49" height="48" viewBox="0 0 49 48" fill="none" xmlns="http://www.w3.org/2000/svg">
<g clip-path="url(#clip0_879_4734)">
<path d="M10.1273 30.3439C10.1273 33.1337 7.87248 35.3885 5.08267 35.3885C2.29286 35.3885 0.0380859 33.1337 0.0380859 30.3439C0.0380859 27.5541 2.29286 25.2993 5.08267 25.2993H10.1273V30.3439ZM12.6496 30.3439C12.6496 27.5541 14.9043 25.2993 17.6941 25.2993C20.4839 25.2993 22.7387 27.5541 22.7387 30.3439V42.9554C22.7387 45.7452 20.4839 48 17.6941 48C14.9043 48 12.6496 45.7452 12.6496 42.9554V30.3439Z" fill="#E01E5A"/>
<path d="M17.6943 10.0892C14.9045 10.0892 12.6497 7.83439 12.6497 5.04459C12.6497 2.25478 14.9045 0 17.6943 0C20.4841 0 22.7389 2.25478 22.7389 5.04459V10.0892H17.6943ZM17.6943 12.6497C20.4841 12.6497 22.7389 14.9045 22.7389 17.6943C22.7389 20.4841 20.4841 22.7389 17.6943 22.7389H5.04459C2.25478 22.7389 0 20.4841 0 17.6943C0 14.9045 2.25478 12.6497 5.04459 12.6497H17.6943Z" fill="#36C5F0"/>
<path d="M37.9108 17.6943C37.9108 14.9045 40.1656 12.6497 42.9554 12.6497C45.7452 12.6497 48 14.9045 48 17.6943C48 20.4841 45.7452 22.7389 42.9554 22.7389H37.9108V17.6943ZM35.3885 17.6943C35.3885 20.4841 33.1337 22.7389 30.3439 22.7389C27.5541 22.7389 25.2993 20.4841 25.2993 17.6943V5.04459C25.2993 2.25478 27.5541 0 30.3439 0C33.1337 0 35.3885 2.25478 35.3885 5.04459V17.6943Z" fill="#2EB67D"/>
<path d="M30.3439 37.9108C33.1337 37.9108 35.3885 40.1656 35.3885 42.9554C35.3885 45.7452 33.1337 48 30.3439 48C27.5541 48 25.2993 45.7452 25.2993 42.9554V37.9108H30.3439ZM30.3439 35.3885C27.5541 35.3885 25.2993 33.1337 25.2993 30.3439C25.2993 27.5541 27.5541 25.2993 30.3439 25.2993H42.9936C45.7834 25.2993 48.0382 27.5541 48.0382 30.3439C48.0382 33.1337 45.7834 35.3885 42.9936 35.3885H30.3439Z" fill="#ECB22E"/>
</g>
<defs>
<clipPath id="clip0_879_4734">
<rect width="48.0382" height="48" fill="white"/>
</clipPath>
</defs>
</svg>
