<svg width="49" height="48" viewBox="0 0 49 48" fill="none" xmlns="http://www.w3.org/2000/svg">
<g clip-path="url(#clip0_879_4776)">
<path fill-rule="evenodd" clip-rule="evenodd" d="M42.3406 0H5.71655C2.55339 0 0 2.55339 0 5.6975V42.2644C0 43.7888 0.590711 45.237 1.6578 46.3231C2.72489 47.3902 4.19214 48 5.6975 48H42.3216C43.846 48 45.2942 47.3902 46.3613 46.3231C47.4283 45.2561 48.0381 43.7888 48.0191 42.2644V5.6975C48.0191 2.55339 45.4657 0 42.3216 0H42.3406ZM20.713 34.5661C20.713 35.0806 20.5034 35.557 20.1413 35.919C19.7793 36.2811 19.2838 36.4716 18.7884 36.4716H10.7852C9.7372 36.4716 8.89877 35.6141 8.89877 34.5661V10.7662C8.89877 9.71814 9.7372 8.86066 10.7852 8.86066H18.7884C19.8364 8.86066 20.6939 9.71814 20.6939 10.7662V34.5852L20.713 34.5661ZM39.1775 23.6475C39.1775 24.162 38.9678 24.6383 38.6058 25.0004C38.2437 25.3624 37.7483 25.553 37.2529 25.553H29.2497C28.2017 25.553 27.3442 24.6955 27.3442 23.6475V10.7662C27.3442 9.71814 28.2017 8.86066 29.2497 8.86066H37.2529C38.3009 8.86066 39.1393 9.71814 39.1393 10.7662L39.1775 23.6475Z" fill="url(#paint0_linear_879_4776)"/>
</g>
<defs>
<linearGradient id="paint0_linear_879_4776" x1="21.0371" y1="50.1344" x2="21.0371" y2="2.13437" gradientUnits="userSpaceOnUse">
<stop stop-color="#0052CC"/>
<stop offset="1" stop-color="#2684FF"/>
</linearGradient>
<clipPath id="clip0_879_4776">
<rect width="48.0381" height="48" fill="white"/>
</clipPath>
</defs>
</svg>
