<svg width="48" height="48" viewBox="0 0 48 48" fill="none" xmlns="http://www.w3.org/2000/svg">
<g clip-path="url(#clip0_879_4774)">
<mask id="mask0_879_4774" style="mask-type:luminance" maskUnits="userSpaceOnUse" x="-11" y="-11" width="70" height="70">
<path d="M-10.564 -10.6199H58.6072V58.5513H-10.564V-10.6199Z" fill="white"/>
</mask>
<g mask="url(#mask0_879_4774)">
<path d="M24.0003 47.9084C37.2047 47.9084 47.9088 37.2043 47.9088 23.9999C47.9088 10.7957 37.2047 0.0914612 24.0003 0.0914612C10.796 0.0914612 0.0917969 10.7957 0.0917969 23.9999C0.0917969 37.2043 10.796 47.9084 24.0003 47.9084Z" fill="#1AB4D7"/>
<path d="M11.5362 23.9309L15.6164 19.8406C15.7517 19.7027 15.8272 19.5202 15.8272 19.3266C15.8272 18.9232 15.4992 18.5955 15.0958 18.5955C14.8992 18.5955 14.715 18.6725 14.5761 18.8132C14.5757 18.814 10.4996 22.8877 10.4996 22.8877L6.40482 18.8071C6.26646 18.6707 6.08312 18.5955 5.88872 18.5955C5.48576 18.5955 5.15771 18.923 5.15771 19.326C5.15771 19.5226 5.23621 19.7071 5.37709 19.8461L9.4567 23.9252L5.3792 28.0103C5.23588 28.1514 5.15771 28.3363 5.15771 28.5338C5.15771 28.9372 5.48576 29.2644 5.88872 29.2644C6.08345 29.2644 6.26695 29.1888 6.40482 29.0509L10.4932 24.968L14.5661 29.036C14.7105 29.1853 14.8969 29.2649 15.0958 29.2649C15.4988 29.2649 15.8268 28.9372 15.8268 28.5338C15.8268 28.3392 15.7514 28.1563 15.6141 28.0184L11.5362 23.9309Z" fill="white"/>
<path d="M35.7925 23.9296C35.7925 24.6622 36.3881 25.2581 37.1216 25.2581C37.8533 25.2581 38.4492 24.6622 38.4492 23.9296C38.4492 23.1969 37.8533 22.6011 37.1216 22.6011C36.3881 22.6011 35.7925 23.1969 35.7925 23.9296Z" fill="white"/>
<path d="M33.2727 23.9304C33.2727 21.809 34.9984 20.083 37.12 20.083C39.2405 20.083 40.9667 21.809 40.9667 23.9304C40.9667 26.0512 39.2405 27.7765 37.12 27.7765C34.9984 27.7765 33.2727 26.0512 33.2727 23.9304ZM31.7593 23.9304C31.7593 26.8858 34.1641 29.2903 37.12 29.2903C40.0758 29.2903 42.4819 26.8858 42.4819 23.9304C42.4819 20.9746 40.0758 18.5694 37.12 18.5694C34.1641 18.5694 31.7593 20.9746 31.7593 23.9304Z" fill="white"/>
<path d="M31.3789 18.661L31.154 18.6604C30.4788 18.6604 29.8276 18.8733 29.2836 19.2925C29.212 18.9645 28.9188 18.7177 28.5696 18.7177C28.1677 18.7177 27.8457 19.0398 27.8447 19.4425C27.8447 19.4439 27.8472 28.4712 27.8472 28.4712C27.8482 28.8732 28.1761 29.2 28.5783 29.2C28.9803 29.2 29.3081 28.8732 29.3092 28.4703C29.3092 28.4685 29.3095 22.9188 29.3095 22.9188C29.3095 21.0685 29.4787 20.3212 31.0637 20.1231C31.2102 20.1049 31.3695 20.1078 31.3702 20.1078C31.8039 20.0929 32.1121 19.7948 32.1121 19.392C32.1121 18.989 31.7831 18.661 31.3789 18.661Z" fill="white"/>
<path d="M17.3417 23.0478C17.3417 23.0278 17.3433 23.007 17.3443 22.9864C17.7687 21.3086 19.2882 20.067 21.0979 20.067C22.9294 20.067 24.4628 21.3391 24.8655 23.0478H17.3417ZM26.3626 22.9098C26.0476 21.4183 25.231 20.1931 23.9876 19.4063C22.1699 18.2523 19.7697 18.3162 18.0141 19.5647C16.582 20.5835 15.7554 22.25 15.7554 23.9668C15.7554 24.3973 15.8073 24.8318 15.9153 25.2595C16.456 27.3867 18.2847 28.997 20.465 29.2638C21.1119 29.3422 21.7417 29.3047 22.3938 29.1358C22.9541 28.9995 23.4963 28.7722 23.9959 28.4521C24.5145 28.1187 24.9477 27.6792 25.3672 27.153C25.3757 27.1433 25.3842 27.1348 25.3927 27.1246C25.6839 26.7634 25.6299 26.2499 25.3099 26.0047C25.04 25.7978 24.587 25.714 24.2304 26.1705C24.1538 26.2797 24.0683 26.392 23.9742 26.5044C23.6907 26.8176 23.339 27.1211 22.9176 27.3565C22.3813 27.643 21.7702 27.8067 21.1206 27.8104C18.9942 27.7867 17.8563 26.3024 17.4516 25.2429C17.3809 25.0451 17.3264 24.8399 17.2884 24.6286C17.2834 24.5891 17.2798 24.5509 17.2783 24.5158C17.7179 24.5158 24.909 24.5145 24.909 24.5145C25.9551 24.4926 26.5181 23.7542 26.3626 22.9098Z" fill="white"/>
</g>
</g>
<defs>
<clipPath id="clip0_879_4774">
<rect width="48" height="48" fill="white"/>
</clipPath>
</defs>
</svg>
