<svg width="44" height="48" viewBox="0 0 44 48" fill="none" xmlns="http://www.w3.org/2000/svg">
<path opacity="0.8" fill-rule="evenodd" clip-rule="evenodd" d="M4.71971 29.0627C5.71755 30.0548 5.71754 31.6633 4.71967 32.6554L4.66857 32.7062C3.6707 33.6983 2.05286 33.6983 1.05501 32.7062C0.0571691 31.714 0.0571845 30.1055 1.05505 29.1135L1.10615 29.0627C2.10402 28.0706 3.72186 28.0706 4.71971 29.0627Z" fill="#FFFFFF"/>
<path opacity="0.9" fill-rule="evenodd" clip-rule="evenodd" d="M16.7323 29.8281C17.7283 30.822 17.7254 32.4305 16.7257 33.4208L9.64792 40.4324C8.64826 41.4227 7.03042 41.4198 6.03437 40.4259C5.03832 39.432 5.04125 37.8235 6.04091 36.8332L13.1187 29.8216C14.1184 28.8313 15.7362 28.8342 16.7323 29.8281Z" fill="#FFFFFF"/>
<path opacity="0.8" fill-rule="evenodd" clip-rule="evenodd" d="M26.3385 41.8979C27.1213 40.7305 28.7077 40.415 29.8819 41.1933L30.0352 41.2949C31.2094 42.0732 31.5267 43.6504 30.7439 44.8178C29.9611 45.9852 28.3747 46.3007 27.2005 45.5224L27.0472 45.4208C25.873 44.6425 25.5557 43.0653 26.3385 41.8979Z" fill="#FFFFFF"/>
<path opacity="0.9" fill-rule="evenodd" clip-rule="evenodd" d="M43.2005 28.9103C44.1984 29.9024 44.1984 31.5109 43.2005 32.503L39.7255 35.958C38.7276 36.9501 37.1098 36.9501 36.1119 35.958C35.1141 34.9659 35.1141 33.3574 36.1119 32.3653L39.5869 28.9103C40.5848 27.9182 42.2026 27.9182 43.2005 28.9103Z" fill="#FFFFFF"/>
<path fill-rule="evenodd" clip-rule="evenodd" d="M43.2516 16.132C44.2495 17.1241 44.2495 18.7326 43.2516 19.7247L17.5722 45.2559C16.5743 46.248 14.9565 46.248 13.9586 45.2559C12.9607 44.2638 12.9607 42.6553 13.9586 41.6632L39.638 16.132C40.6359 15.1399 42.2537 15.1399 43.2516 16.132Z" fill="#FFFFFF"/>
<path fill-rule="evenodd" clip-rule="evenodd" d="M38.3968 8.28216C39.3947 9.27425 39.3947 10.8828 38.3968 11.8748L23.6279 26.5584C22.6301 27.5505 21.0122 27.5505 20.0144 26.5584C19.0165 25.5664 19.0165 23.9579 20.0144 22.9658L34.7833 8.28216C35.7811 7.29006 37.399 7.29006 38.3968 8.28216Z" fill="#FFFFFF"/>
<path fill-rule="evenodd" clip-rule="evenodd" d="M30.6023 3.3017C31.6008 4.29313 31.6019 5.90163 30.6047 6.89439L11.6198 25.7951C10.6226 26.7878 9.00479 26.7889 8.00626 25.7975C7.00773 24.8061 7.00665 23.1976 8.00383 22.2048L26.9887 3.30412C27.9859 2.31136 29.6038 2.31027 30.6023 3.3017Z" fill="#FFFFFF"/>
<path opacity="0.9" fill-rule="evenodd" clip-rule="evenodd" d="M11.8006 9.35215C12.7967 10.3459 12.7939 11.9544 11.7944 12.9448L4.35883 20.312C3.35926 21.3024 1.74142 21.2997 0.745284 20.3059C-0.250852 19.312 -0.248067 17.7036 0.751504 16.7132L8.18704 9.34596C9.18661 8.35558 10.8045 8.35835 11.8006 9.35215Z" fill="#FFFFFF"/>
<path opacity="0.8" fill-rule="evenodd" clip-rule="evenodd" d="M16.3531 2C17.7643 2 18.9083 3.13738 18.9083 4.54042V4.79446C18.9083 6.19749 17.7643 7.33487 16.3531 7.33487C14.9419 7.33487 13.7979 6.19749 13.7979 4.79446V4.54042C13.7979 3.13738 14.9419 2 16.3531 2Z" fill="#FFFFFF"/>
</svg>
