<svg width="44" height="48" viewBox="0 0 44 48" fill="none" xmlns="http://www.w3.org/2000/svg">
<path opacity="0.7" d="M13.2775 22.3182C14.0998 19.25 17.2537 16.0961 20.322 15.2738L39.451 10.1474C42.5192 9.32516 44.34 11.1459 43.5177 14.2142L38.3914 33.3432C37.5691 36.4114 34.4152 39.5653 31.3469 40.3876L12.2179 45.514C9.14966 46.3362 7.32891 44.5155 8.15117 41.4472L13.2775 22.3182Z" fill="#FFFFFF"/>
<path d="M5.60884 14.6493C6.43111 11.5811 9.58501 8.42717 12.6533 7.60491L31.7823 2.47854C34.8506 1.65628 36.6713 3.47702 35.8491 6.54529L30.7227 25.6743C29.9004 28.7426 26.7465 31.8965 23.6782 32.7187L4.54923 37.8451C1.48096 38.6674 -0.339797 36.8466 0.482468 33.7783L5.60884 14.6493Z" fill="#FFFFFF"/>
</svg>
