<svg width="44" height="48" viewBox="0 0 44 48" fill="none" xmlns="http://www.w3.org/2000/svg">
<path opacity="0.8" d="M36.3066 11.1631C35.8743 10.7309 35.4421 10.2986 35.0099 9.86642C33.7132 8.48331 32.3301 7.10021 30.6012 6.23577C28.613 5.19844 26.4519 5.45777 24.2908 5.45777C21.006 5.45777 12.7938 5.45777 7.95291 5.45777L11.2378 9.86642C17.2024 9.86642 26.5384 9.86642 30.8606 9.86642C32.6759 9.86642 34.2319 10.2122 35.7014 11.1631C35.9608 11.2495 36.2201 11.2495 36.3066 11.1631Z" fill="#FFFFFF"/>
<path opacity="0.9" d="M39.9372 18.2517C39.505 17.8195 39.0727 17.3873 38.6405 16.955C37.3439 15.5719 35.9608 14.1888 34.2319 13.3244C32.2437 12.2871 30.0826 12.5464 27.9215 12.5464C25.0688 12.5464 18.2397 12.5464 13.3989 12.5464L16.6837 16.955C22.5619 16.955 30.6012 16.955 34.5777 16.955C36.393 16.955 37.949 17.3008 39.4185 18.2517C39.5914 18.3381 39.7643 18.3381 39.9372 18.2517Z" fill="#FFFFFF"/>
<path d="M44 25.167C43.5678 24.7348 43.1356 24.3025 42.7034 23.8703C41.4067 22.4872 40.0236 21.1041 38.2947 20.2397C36.3065 19.2023 34.1454 19.4617 31.9843 19.4617C29.3045 19.4617 23.4264 19.4617 18.6719 19.4617L21.9568 23.8703C27.6621 23.8703 34.9234 23.8703 38.5541 23.8703C40.3694 23.8703 41.9254 24.2161 43.3949 25.167C43.6542 25.2534 43.8271 25.3399 44 25.167Z" fill="#FFFFFF"/>
<path opacity="0.8" d="M7.60715 36.8368C8.03937 37.269 8.47159 37.7012 8.90381 38.1335C10.2005 39.5166 11.5836 40.8997 13.3124 41.7641C15.3007 42.8014 17.4618 42.5421 19.6229 42.5421H35.9608L32.6759 38.1335C26.7113 38.1335 17.3753 38.1335 13.0531 38.1335C11.2378 38.1335 9.6818 37.7877 8.21225 36.8368C7.95292 36.7504 7.78004 36.7504 7.60715 36.8368Z" fill="#FFFFFF"/>
<path opacity="0.9" d="M3.97644 29.7487C4.40866 30.1809 4.84088 30.6131 5.2731 31.0453C6.56976 32.4284 7.95286 33.8116 9.68174 34.676C11.67 35.7133 13.8311 35.454 15.9922 35.454H30.5148L27.2299 31.0453C21.3517 31.0453 13.3124 31.0453 9.33597 31.0453C7.52064 31.0453 5.96465 30.6996 4.4951 29.7487C4.32221 29.6622 4.14933 29.6622 3.97644 29.7487Z" fill="#FFFFFF"/>
<path d="M0 22.7465C0.43222 23.1787 0.86444 23.6109 1.29666 24.0431C2.59332 25.4262 3.97643 26.8094 5.70531 27.6738C7.69352 28.7111 9.85461 28.4518 12.0157 28.4518H25.3281L22.0432 24.0431C16.3379 24.0431 9.07662 24.0431 5.44598 24.0431C3.63065 24.0431 2.07465 23.6974 0.605106 22.7465C0.345773 22.66 0.172888 22.66 0 22.7465Z" fill="#FFFFFF"/>
</svg>
