<svg width="75" height="48" viewBox="0 0 75 48" fill="none" xmlns="http://www.w3.org/2000/svg">
<rect width="74.5075" height="48" rx="8" fill="#FF4785"/>
<path fill-rule="evenodd" clip-rule="evenodd" d="M50.5666 16.7865C52.0349 17.4171 53.278 18.471 54.1698 19.8402C55.0615 21.2094 55.5029 22.7768 55.4669 24.3622V24.4252C55.4669 24.6324 55.4488 24.8486 55.4309 25.0558C55.3948 25.362 55.3498 25.6683 55.2867 25.9656C54.8274 28.0914 53.5752 29.911 51.7466 31.1001L49.3055 27.3348C50.1252 26.8033 50.6837 25.9836 50.8909 25.0287C51.098 24.0739 50.9179 23.101 50.3865 22.2813C50.3467 22.2189 50.3034 22.1601 50.2588 22.1026C50.2326 22.0688 50.206 22.0355 50.1793 22.0021C50.1613 21.9751 50.1432 21.9571 50.1252 21.939C50.0712 21.867 50.0171 21.8039 49.9541 21.7408L49.873 21.6598C49.8399 21.6267 49.8068 21.5936 49.7737 21.5626C49.7528 21.5429 49.7318 21.5241 49.7109 21.5067C49.6748 21.4796 49.6478 21.4526 49.6117 21.4256C49.5812 21.4001 49.5478 21.3775 49.5147 21.3546C49.4893 21.3369 49.4641 21.319 49.4406 21.2995C49.4226 21.286 49.4046 21.2747 49.3865 21.2634L49.3629 21.2485L49.3494 21.2394C49.3438 21.2356 49.3382 21.2316 49.3325 21.2274C49.2695 21.1914 49.2154 21.1553 49.1524 21.1193C49.1432 21.1148 49.1341 21.1096 49.125 21.1042C49.1161 21.0989 49.1072 21.0933 49.0984 21.0878C49.0803 21.0765 49.0623 21.0653 49.0443 21.0563C48.9722 21.0202 48.9091 20.9932 48.8371 20.9572C48.8192 20.9482 48.8034 20.9415 48.7878 20.9347C48.7719 20.9279 48.7561 20.9212 48.738 20.9121C48.6807 20.8861 48.6203 20.863 48.5588 20.8413C48.5139 20.8254 48.4683 20.8102 48.4228 20.795C48.3056 20.759 48.1885 20.732 48.0714 20.7049C47.9453 20.6869 47.8282 20.6599 47.7021 20.6509C47.6845 20.6474 47.6654 20.6452 47.6454 20.6439C47.6146 20.6419 47.5818 20.6419 47.549 20.6419C47.4769 20.6419 47.4048 20.6329 47.3328 20.6329H47.3058C47.2067 20.6329 47.1076 20.6329 47.0085 20.6419H46.9724C46.923 20.6464 46.8758 20.6509 46.8285 20.6565C46.7812 20.6621 46.7339 20.6689 46.6842 20.6779C46.6572 20.6779 46.6391 20.6869 46.6121 20.6869C46.5791 20.6959 46.5472 20.7039 46.5155 20.7116C46.4788 20.7205 46.4424 20.7289 46.4056 20.738C46.3787 20.7445 46.3517 20.7514 46.3239 20.759C46.3149 20.768 46.3059 20.768 46.2969 20.768C46.2472 20.7861 46.1952 20.8042 46.1432 20.8223C46.0915 20.8402 46.04 20.8582 45.9906 20.8761L45.9771 20.8809C45.9692 20.8838 45.9619 20.8867 45.9546 20.8897C45.9433 20.8942 45.932 20.8986 45.9185 20.9031L45.8861 20.919C45.8597 20.9319 45.8323 20.9448 45.805 20.9577L45.7839 20.9675C45.753 20.9821 45.7224 20.9967 45.6933 21.0112C45.6861 21.016 45.679 21.0201 45.6718 21.024C45.6655 21.0274 45.6592 21.0306 45.6528 21.0337L45.6389 21.0408C45.63 21.0454 45.6211 21.0504 45.6123 21.0563C45.5697 21.0776 45.5251 21.1008 45.4804 21.1262C45.4305 21.1544 45.3805 21.1851 45.333 21.2184L45.315 21.2364C45.315 21.2331 45.3163 21.231 45.3183 21.2292L45.075 21.4093L45.0628 21.4166C45.0673 21.4166 45.0696 21.4143 45.0719 21.412C45.0729 21.4111 45.0738 21.4101 45.075 21.4093C45.0765 21.4083 45.0783 21.4076 45.0808 21.4076L45.0173 21.4532C43.5867 22.6224 43.2269 24.703 44.252 26.2808C44.7835 27.1005 45.6032 27.659 46.5581 27.8662C47.522 28.0644 48.4948 27.8842 49.3145 27.3528L51.7557 31.1181C50.3865 32.0008 48.8551 32.4242 47.3328 32.4242C44.6665 32.4242 42.0451 31.1181 40.4868 28.713C39.8472 27.7221 39.4508 26.6501 39.2797 25.5602L32.1094 30.7127L31.65 31.046L31.641 31.055C30.2358 31.9648 28.6955 32.4242 27.128 32.4242C26.8398 32.4242 26.5606 32.4062 26.2723 32.3792H26.2633C26.1282 32.3612 25.984 32.3431 25.8489 32.3251C25.7138 32.2981 25.5697 32.2711 25.4255 32.2441C23.2997 31.7846 21.4711 30.5326 20.291 28.704C17.8499 24.9297 18.9309 19.8762 22.6961 17.4351C24.5247 16.246 26.6957 15.8497 28.8306 16.3001C30.9564 16.7595 32.785 18.0116 33.9651 19.8402C34.5866 20.804 34.9919 21.876 35.1721 22.9839L42.3334 17.8314L42.8108 17.4891C44.7295 16.246 46.9094 15.8497 49.0353 16.3001C49.5667 16.4082 50.0802 16.5793 50.5666 16.7865ZM28.5332 27.641C28.7314 27.56 28.9296 27.4609 29.1188 27.3348C29.2179 27.2717 29.317 27.1996 29.407 27.1096C30.0646 26.5871 30.515 25.8575 30.6951 25.0197C30.9024 24.0649 30.7222 23.092 30.1907 22.2723C29.4971 21.1914 28.3171 20.6059 27.1191 20.6059C26.4435 20.6059 25.7499 20.795 25.1373 21.1914C24.0834 21.885 23.4979 23.029 23.4709 24.2C23.4618 24.5513 23.5069 24.9116 23.606 25.2539C23.6961 25.5962 23.8491 25.9385 24.0564 26.2538C24.1465 26.3799 24.2365 26.497 24.3266 26.6141C25.3535 27.8392 27.074 28.2536 28.5332 27.641Z" fill="white"/>
</svg>
