<?xml version="1.0" standalone="no"?>
<!DOCTYPE svg PUBLIC "-//W3C//DTD SVG 20010904//EN"
 "http://www.w3.org/TR/2001/REC-SVG-20010904/DTD/svg10.dtd">
<svg version="1.0" xmlns="http://www.w3.org/2000/svg"
 width="353.000000pt" height="353.000000pt" viewBox="0 0 353.000000 353.000000"
 preserveAspectRatio="xMidYMid meet">
<metadata>
Created by potrace 1.11, written by Peter Selinger 2001-2013
</metadata>
<g transform="translate(0.000000,353.000000) scale(0.100000,-0.100000)"
fill="#000000" stroke="none">
<path d="M1680 3443 c-47 -42 -130 -117 -185 -167 -54 -50 -124 -113 -154
-141 -47 -43 -126 -115 -165 -150 -6 -6 -60 -55 -121 -110 -138 -125 -118
-107 -220 -200 -48 -44 -97 -89 -109 -100 -13 -11 -63 -57 -112 -101 -49 -45
-102 -93 -119 -107 l-30 -25 29 -54 c39 -71 375 -675 397 -713 10 -16 28 -49
40 -73 13 -24 28 -47 34 -52 6 -5 37 17 82 59 40 37 107 99 149 137 43 38 89
80 104 94 14 14 67 61 116 105 49 44 91 83 94 86 18 20 253 229 258 229 4 0
30 -21 57 -46 28 -25 66 -60 85 -77 98 -89 260 -236 295 -268 22 -21 49 -46
61 -56 21 -18 166 -149 253 -230 42 -38 47 -41 59 -25 11 14 134 234 263 468
15 27 73 131 129 229 55 98 100 181 100 186 0 4 -4 9 -9 11 -5 2 -53 44 -107
94 -55 50 -121 110 -148 135 -28 24 -57 51 -66 59 -17 16 -205 188 -224 205
-6 6 -59 53 -116 105 -58 52 -110 100 -116 105 -39 34 -180 163 -198 180 -63
59 -314 285 -317 285 -2 0 -42 -35 -89 -77z"/>
<path d="M1729 1367 c-20 -18 -75 -68 -124 -112 -48 -44 -93 -85 -99 -90 -6
-6 -42 -39 -81 -74 -157 -144 -176 -163 -167 -175 9 -11 28 -44 100 -176 19
-36 87 -157 150 -270 63 -113 146 -262 185 -333 80 -144 73 -142 132 -32 21
39 88 160 150 270 62 110 127 227 145 260 18 33 45 80 59 105 45 78 71 124 88
158 l17 33 -55 52 c-31 29 -75 70 -100 91 -24 22 -87 79 -139 127 -148 135
-201 183 -214 191 -7 4 -28 -7 -47 -25z"/>
</g>
</svg>
